<mxfile host="app.diagrams.net" modified="2024-05-29T05:53:10.077Z" agent="Mozilla/5.0 (Windows NT 10.0; Win64; x64) AppleWebKit/537.36 (KHTML, like Gecko) Chrome/125.0.0.0 Safari/537.36" etag="6cFGGSkkU1Sk2cLNhqwT" version="24.4.9" type="device">
  <diagram name="PÃ¡gina-1" id="EYtKbv6iT6dg4Dx6-kHv">
    <mxGraphModel dx="1120" dy="468" grid="1" gridSize="10" guides="1" tooltips="1" connect="1" arrows="1" fold="1" page="1" pageScale="1" pageWidth="827" pageHeight="1169" math="0" shadow="0">
      <root>
        <mxCell id="0" />
        <mxCell id="1" parent="0" />
        <mxCell id="9_4fFIJLHnqMph-Ww8Ux-1" value="Cliente" style="swimlane;fontStyle=1;align=center;verticalAlign=top;childLayout=stackLayout;horizontal=1;startSize=26;horizontalStack=0;resizeParent=1;resizeParentMax=0;resizeLast=0;collapsible=1;marginBottom=0;whiteSpace=wrap;html=1;" parent="1" vertex="1">
          <mxGeometry x="150" y="80" width="180" height="190" as="geometry" />
        </mxCell>
        <mxCell id="9_4fFIJLHnqMph-Ww8Ux-2" value="&lt;div&gt;- nombre: string&lt;/div&gt;+&amp;nbsp;&lt;span style=&quot;background-color: initial;&quot;&gt;Membresia: bool&lt;/span&gt;&lt;div&gt;&lt;span style=&quot;background-color: initial;&quot;&gt;+ clientes: Cliente[]&lt;/span&gt;&lt;/div&gt;" style="text;strokeColor=none;fillColor=none;align=left;verticalAlign=top;spacingLeft=4;spacingRight=4;overflow=hidden;rotatable=0;points=[[0,0.5],[1,0.5]];portConstraint=eastwest;whiteSpace=wrap;html=1;" parent="9_4fFIJLHnqMph-Ww8Ux-1" vertex="1">
          <mxGeometry y="26" width="180" height="54" as="geometry" />
        </mxCell>
        <mxCell id="9_4fFIJLHnqMph-Ww8Ux-3" value="" style="line;strokeWidth=1;fillColor=none;align=left;verticalAlign=middle;spacingTop=-1;spacingLeft=3;spacingRight=3;rotatable=0;labelPosition=right;points=[];portConstraint=eastwest;strokeColor=inherit;" parent="9_4fFIJLHnqMph-Ww8Ux-1" vertex="1">
          <mxGeometry y="80" width="180" height="8" as="geometry" />
        </mxCell>
        <mxCell id="9_4fFIJLHnqMph-Ww8Ux-4" value="+ GetNombre(string nombre): void&lt;div&gt;+ GetCliente(Cliente[] clientes): void&lt;/div&gt;&lt;div&gt;+ SetCliente(): Cliente[] clientes&lt;/div&gt;&lt;div&gt;&lt;br&gt;&lt;/div&gt;" style="text;strokeColor=none;fillColor=none;align=left;verticalAlign=top;spacingLeft=4;spacingRight=4;overflow=hidden;rotatable=0;points=[[0,0.5],[1,0.5]];portConstraint=eastwest;whiteSpace=wrap;html=1;" parent="9_4fFIJLHnqMph-Ww8Ux-1" vertex="1">
          <mxGeometry y="88" width="180" height="102" as="geometry" />
        </mxCell>
        <mxCell id="9_4fFIJLHnqMph-Ww8Ux-5" value="Leccion" style="swimlane;fontStyle=1;align=center;verticalAlign=top;childLayout=stackLayout;horizontal=1;startSize=26;horizontalStack=0;resizeParent=1;resizeParentMax=0;resizeLast=0;collapsible=1;marginBottom=0;whiteSpace=wrap;html=1;" parent="1" vertex="1">
          <mxGeometry x="360" y="80" width="210" height="270" as="geometry" />
        </mxCell>
        <mxCell id="9_4fFIJLHnqMph-Ww8Ux-6" value="- tipo: string&lt;div&gt;- dia: string&lt;/div&gt;&lt;div&gt;- horario: string&lt;/div&gt;&lt;div&gt;- instructor: string&lt;/div&gt;&lt;div&gt;+ Leccion[] lecciones: object&lt;/div&gt;" style="text;strokeColor=none;fillColor=none;align=left;verticalAlign=top;spacingLeft=4;spacingRight=4;overflow=hidden;rotatable=0;points=[[0,0.5],[1,0.5]];portConstraint=eastwest;whiteSpace=wrap;html=1;" parent="9_4fFIJLHnqMph-Ww8Ux-5" vertex="1">
          <mxGeometry y="26" width="210" height="104" as="geometry" />
        </mxCell>
        <mxCell id="9_4fFIJLHnqMph-Ww8Ux-7" value="" style="line;strokeWidth=1;fillColor=none;align=left;verticalAlign=middle;spacingTop=-1;spacingLeft=3;spacingRight=3;rotatable=0;labelPosition=right;points=[];portConstraint=eastwest;strokeColor=inherit;" parent="9_4fFIJLHnqMph-Ww8Ux-5" vertex="1">
          <mxGeometry y="130" width="210" height="8" as="geometry" />
        </mxCell>
        <mxCell id="9_4fFIJLHnqMph-Ww8Ux-8" value="+ GetTipo(string tipo): void&lt;div&gt;+ GetDia(string dia): void&lt;br&gt;&lt;/div&gt;&lt;div&gt;+ GetHorario(string horario): void&lt;br&gt;&lt;/div&gt;&lt;div&gt;+ GetInstructor(string instructor): void&lt;br&gt;&lt;/div&gt;&lt;div&gt;+ GetLeccion(Leccion[] lec): void&lt;br&gt;&lt;/div&gt;&lt;div&gt;+ SetLeccion(): Leccion[] lecciones&lt;/div&gt;&lt;div&gt;+ Catalogo(): void&lt;/div&gt;" style="text;strokeColor=none;fillColor=none;align=left;verticalAlign=top;spacingLeft=4;spacingRight=4;overflow=hidden;rotatable=0;points=[[0,0.5],[1,0.5]];portConstraint=eastwest;whiteSpace=wrap;html=1;" parent="9_4fFIJLHnqMph-Ww8Ux-5" vertex="1">
          <mxGeometry y="138" width="210" height="132" as="geometry" />
        </mxCell>
        <mxCell id="9_4fFIJLHnqMph-Ww8Ux-9" value="Instalacion" style="swimlane;fontStyle=1;align=center;verticalAlign=top;childLayout=stackLayout;horizontal=1;startSize=26;horizontalStack=0;resizeParent=1;resizeParentMax=0;resizeLast=0;collapsible=1;marginBottom=0;whiteSpace=wrap;html=1;" parent="1" vertex="1">
          <mxGeometry x="150" y="290" width="180" height="240" as="geometry" />
        </mxCell>
        <mxCell id="9_4fFIJLHnqMph-Ww8Ux-10" value="- ubicacion: string&lt;div&gt;+ disponibilidad: bool&lt;/div&gt;&lt;div&gt;+ instalaciones: Instalacion[]&lt;/div&gt;" style="text;strokeColor=none;fillColor=none;align=left;verticalAlign=top;spacingLeft=4;spacingRight=4;overflow=hidden;rotatable=0;points=[[0,0.5],[1,0.5]];portConstraint=eastwest;whiteSpace=wrap;html=1;" parent="9_4fFIJLHnqMph-Ww8Ux-9" vertex="1">
          <mxGeometry y="26" width="180" height="84" as="geometry" />
        </mxCell>
        <mxCell id="9_4fFIJLHnqMph-Ww8Ux-11" value="" style="line;strokeWidth=1;fillColor=none;align=left;verticalAlign=middle;spacingTop=-1;spacingLeft=3;spacingRight=3;rotatable=0;labelPosition=right;points=[];portConstraint=eastwest;strokeColor=inherit;" parent="9_4fFIJLHnqMph-Ww8Ux-9" vertex="1">
          <mxGeometry y="110" width="180" height="8" as="geometry" />
        </mxCell>
        <mxCell id="9_4fFIJLHnqMph-Ww8Ux-12" value="+ GetUbicacion(string ubicacion): void&lt;div&gt;+ GetInstalaciones(Instalacion[] instalaciones): void&lt;/div&gt;&lt;div&gt;+ SetInstalaciones(): Instalacion[] instalaciones&lt;/div&gt;" style="text;strokeColor=none;fillColor=none;align=left;verticalAlign=top;spacingLeft=4;spacingRight=4;overflow=hidden;rotatable=0;points=[[0,0.5],[1,0.5]];portConstraint=eastwest;whiteSpace=wrap;html=1;" parent="9_4fFIJLHnqMph-Ww8Ux-9" vertex="1">
          <mxGeometry y="118" width="180" height="122" as="geometry" />
        </mxCell>
      </root>
    </mxGraphModel>
  </diagram>
</mxfile>
